Coordinates
version=1
nRows=19
nColumns=34
inDegrees=yes

Units are S.I. units (second, meters, Newtons, ...)
If the header above contains a line with 'inDegrees', this indicates whether rotational values are in degrees (yes) or radians (no).

endheader
time	pelvis_tilt	pelvis_list	pelvis_rotation	pelvis_tx	pelvis_ty	pelvis_tz	hip_flexion_r	hip_adduction_r	hip_rotation_r	knee_angle_r	ankle_angle_r	subtalar_angle_r	mtp_angle_r	hip_flexion_l	hip_adduction_l	hip_rotation_l	knee_angle_l	ankle_angle_l	subtalar_angle_l	mtp_angle_l	lumbar_extension	lumbar_bending	lumbar_rotation	arm_flex_r	arm_add_r	arm_rot_r	elbow_flex_r	pro_sup_r	arm_flex_l	arm_add_l	arm_rot_l	elbow_flex_l	pro_sup_l
      2.60000000	    -12.83343202	      2.74384424	     -1.47976823	      0.68207720	      1.07356911	     -0.10633000	     34.91531808	     -6.81989461	     -6.78202359	     10.78766631	    -29.59692303	     -5.18856690	      0.00000000	     37.16851268	     -9.68396522	     -5.83528822	     10.41336897	    -19.02487157	      1.60736361	      0.00000000	     -5.11083152	      0.04286009	     -0.37091589	    106.66278836	    -31.52872749	     66.84505070	     92.88141897	     90.32647593	     84.83379612	    -43.47848977	     43.69561722	    102.38035890	     84.05525122
      2.61666670	    -12.45820826	      2.77275299	     -1.26889059	      0.70480666	      1.03177238	     -0.11322524	     35.60286922	     -7.42322522	     -6.92233384	     12.13755697	    -32.48169857	     -5.29964187	      0.00000000	     37.51346608	     -9.18104754	     -5.45946011	     11.61879743	    -19.11938343	      2.45452308	      0.00000000	     -5.60475406	      0.50773988	     -0.41224028	    108.53693914	    -32.61447884	     67.61749271	     94.83452496	     90.18248690	     85.11544111	    -44.56227578	     44.06038789	    103.48812231	     83.63206163
      2.63333330	    -11.80526221	      2.69852380	     -0.62986468	      0.72851479	      0.98854741	     -0.11727979	     36.07225754	     -8.08310722	     -6.52109855	     15.24165045	    -32.89279365	     -2.01169846	      0.00000000	     38.21172865	     -8.59827997	     -5.23112734	     15.17703131	    -18.37453217	      2.91816166	      0.00000000	     -6.06677022	      1.06882194	     -0.79041544	    110.64954236	    -33.17955629	     70.22130565	     95.44065084	     89.97547870	     86.64809916	    -45.05235263	     45.45191732	    104.16785344	     83.07508448
      2.65000000	    -10.49794148	      2.18394437	     -0.42630815	      0.73974642	      0.94974855	     -0.11841296	     36.70569720	     -8.12378356	     -6.10660619	     20.34809942	    -29.02170617	     -1.97584100	      0.00000000	     38.83051813	     -8.83594401	     -5.25731110	     20.37448024	    -16.11778398	      2.67185928	      0.00000000	     -7.92778497	      1.71177395	     -0.90638818	    113.81793889	    -33.74420009	     72.55923790	     96.11697045	     89.16389979	     89.72550384	    -45.22982816	     47.83729577	    104.13274628	     81.92620660
      2.66666670	     -9.49988004	      1.60389251	     -1.12813441	      0.76156093	      0.89742082	     -0.12462778	     39.29136890	     -7.98378098	     -5.68643880	     30.80406455	    -15.13525360	     -2.70542380	      0.00000000	     40.73040127	     -9.82995055	     -5.37765760	     27.63248683	     -8.24341773	      1.64779323	      0.00000000	     -8.87381829	      2.39412173	     -0.83114026	    115.27578361	    -34.27639898	     73.74920192	     96.62877592	     88.89986476	     91.57261724	    -45.92626714	     48.46774319	    105.14972108	     81.49652781
      2.68333330	     -9.24710933	      1.66886634	     -1.04161363	      0.76990205	      0.86171184	     -0.13024007	     43.46258128	     -9.07399385	     -4.88159846	     42.48889615	      0.29149456	     -3.96132432	      0.00000000	     44.76693307	     -9.89602999	     -5.55531494	     37.52210389	      2.88098119	     -0.57135859	      0.00000000	    -10.23431773	      2.60156706	     -1.08556585	    116.69237594	    -34.73211638	     73.57426603	     97.67385093	     88.71489715	     93.79507476	    -46.18526177	     48.14297199	    106.69340951	     81.19696446
      2.70000000	     -8.38505965	      1.66461888	     -1.43821776	      0.78282333	      0.82878647	     -0.13639657	     48.19707675	    -10.01196138	     -3.58386933	     54.98047046	     12.27725397	     -4.04315874	      0.00000000	     49.57823624	    -10.33247896	     -4.45743681	     49.65572719	     13.26585786	     -1.81879831	      0.00000000	    -12.51610758	      2.74029882	     -0.29165201	    117.11077322	    -36.30571110	     72.63809366	    100.32042574	     88.59735236	     93.42409837	    -46.82410423	     45.50564820	    110.61745428	     80.91545268
      2.71666670	     -7.67060269	      1.43954511	     -1.90717588	      0.79341349	      0.79765630	     -0.13772007	     52.48226082	    -10.43010935	     -2.25952919	     65.92588594	     21.41487396	     -2.54292459	      0.00000000	     54.51793257	    -10.97181679	     -2.45188692	     61.49464806	     21.25233245	     -2.48872065	      0.00000000	    -15.25828161	      3.04981977	      0.03422821	    115.89461392	    -37.48165684	     70.73801691	    103.45589953	     88.54602263	     92.38108130	    -46.92643043	     42.05885090	    114.09408211	     80.69431100
      2.73333330	     -8.25298239	      1.38586546	     -2.27187358	      0.79275818	      0.75975811	     -0.13913235	     58.05079960	    -10.65526599	     -0.93803099	     74.67540828	     27.99556213	      0.00477717	      0.00000000	     60.80429353	    -11.42104127	     -0.49995942	     71.81405270	     27.34488011	     -1.88358892	      0.00000000	    -17.79940372	      3.39708098	     -0.01098877	    116.03861513	    -36.99707935	     68.98891079	    103.75907717	     88.58578396	     93.66116439	    -45.92738756	     40.02631095	    114.85886564	     80.63530588
      2.75000000	     -9.34149156	      1.30805828	     -2.12551187	      0.79310195	      0.73273713	     -0.13892926	     62.86379533	    -10.92410870	     -0.44374730	     81.11976662	     32.14680291	      1.23412109	      0.00000000	     66.47303974	    -11.64190328	      1.13993279	     79.18727281	     30.15200756	     -1.69388433	      0.00000000	    -19.92330737	      3.10547398	     -0.22303268	    111.71128236	    -37.86207002	     61.78941844	    106.16845868	     88.71732789	     95.60710580	    -41.46357063	     39.47784701	    112.30927640	     80.91625274
      2.76666670	    -11.02184969	      1.67424233	     -1.66826689	      0.78494716	      0.71115558	     -0.14004044	     67.32940550	    -11.31249641	      0.15430378	     84.97824577	     33.99782799	      1.25076072	      0.00000000	     71.45937020	    -11.22785105	      2.04064273	     83.55559219	     31.33195410	     -0.98570554	      0.00000000	    -22.38128846	      1.88518864	      0.99200050	    107.72012651	    -40.15978195	     54.55857695	    110.04294580	     89.25580909	     97.72592327	    -34.95503286	     39.37730569	    108.95746928	     81.82925889
      2.78333330	    -12.26722349	      1.99837722	     -1.42742714	      0.79282962	      0.68880864	     -0.14362056	     70.82952518	    -11.83969502	      0.73754363	     88.37995793	     35.91905928	      1.72955405	      0.00000000	     75.09353161	    -11.05039140	      2.45243200	     86.90108494	     32.26091131	     -0.56911360	      0.00000000	    -24.67750373	      1.67819285	      1.44225211	    104.89816853	    -38.45736355	     50.73932127	    109.60174077	     89.52962904	     96.71422871	    -30.44606917	     37.31954401	    106.42136401	     82.29345568
      2.80000000	    -14.49761421	      2.35735219	     -1.27578910	      0.79569857	      0.66736642	     -0.14696998	     74.97430246	    -12.20020322	      1.73452222	     90.91364747	     36.40269884	      2.01197135	      0.00000000	     79.11488724	    -10.92158898	      2.49033543	     89.53724660	     33.32201537	     -0.07734147	      0.00000000	    -25.37732758	      1.15926242	      1.44227222	     99.45575638	    -36.68651643	     45.08062395	    109.78621165	     90.24313328	     93.07313600	    -26.63107239	     34.41887886	    107.32062857	     83.40079169
      2.81666670	    -16.57211720	      2.91203890	     -1.42834435	      0.79789968	      0.64707605	     -0.15135044	     79.06176834	    -12.42751966	      3.32768421	     93.63246229	     37.63412270	      2.66638946	      0.00000000	     82.83185734	    -11.01427884	      2.17225801	     92.12196821	     34.82583731	      0.65431907	      0.00000000	    -26.03268995	      0.89259568	      1.17998040	     96.77408150	    -33.63175645	     41.96948940	    110.69508972	     92.11950121	     89.74585588	    -24.11938336	     32.64022222	    109.83121769	     86.11250881
      2.83333330	    -18.61637306	      3.49677228	     -1.32037645	      0.78687029	      0.63653106	     -0.15543376	     82.82840225	    -12.71207194	      4.79805360	     95.12815281	     37.34150259	      2.84695145	      0.00000000	     86.42634053	    -10.62551683	      1.56648574	     93.93804653	     35.33525716	      0.84296724	      0.00000000	    -28.20246766	      0.60471264	      1.19492990	     98.49139269	    -31.79155108	     41.97165111	    110.50350507	     92.46035113	     89.92203538	    -21.03174687	     32.66538785	    110.50377385	     86.64919311
      2.85000000	    -20.19221864	      3.76026063	     -1.49381096	      0.78049647	      0.62439875	     -0.15247775	     86.09406104	    -12.50264044	      5.53072064	     96.45829349	     37.21891489	      2.94602241	      0.00000000	     89.14203203	    -11.03143197	      1.44209426	     94.73717662	     35.18299431	      1.12527882	      0.00000000	    -30.89441631	      0.43948886	      0.72364693	    102.06318510	    -28.01170527	     42.43742932	    108.26417201	     93.56394209	     91.58091365	    -20.01907796	     33.05163450	    110.75876670	     89.13400200
      2.86666670	    -22.03325476	      4.10229600	     -0.98933269	      0.77515630	      0.60606941	     -0.14866130	     89.98133681	    -12.70612801	      6.00413146	     98.19678147	     36.94994849	      2.67588569	      0.00000000	     92.91293550	    -11.27827455	      1.25817651	     96.27537040	     34.64912279	      1.48862511	      0.00000000	    -32.96636958	      0.26206102	      0.45335355	    106.99314918	    -24.96254599	     43.99137530	    106.08054978	     93.73107409	     96.12299580	    -18.82267081	     34.91738249	    107.41796555	     89.62228545
      2.88333330	    -23.77513514	      4.43691559	     -0.89525586	      0.77053968	      0.58842364	     -0.15062850	     93.98053064	    -12.67482478	      6.41849376	    100.04915951	     36.75671603	      2.50390312	      0.00000000	     96.53697798	    -11.90592404	      1.02030047	     97.80884443	     34.43459564	      1.98831612	      0.00000000	    -34.81619571	      0.14207798	      0.24924562	    112.17448322	    -22.21370660	     44.90097829	    104.66824096	     93.79413966	    100.99134992	    -18.29858971	     36.23573142	    104.09064845	     89.94093852
      2.90000000	    -25.75497149	      4.38421329	     -0.60514183	      0.77447489	      0.56626635	     -0.15065724	     97.95112885	    -12.99742682	      6.43344539	    102.48131232	     37.63603380	      2.83252852	      0.00000000	    100.63590582	    -12.64974673	      1.14062004	     99.92423361	     34.89011650	      2.70554195	      0.00000000	    -35.48762187	      0.35324999	      0.24505776	    116.21476380	    -20.47129218	     45.44030577	    104.77308345	     93.84507078	    105.32663503	    -18.11241692	     37.74752077	    102.06823124	     90.18186094
